<svg width="129" height="123" viewBox="0 0 129 123" fill="none" xmlns="http://www.w3.org/2000/svg">
<g filter="url(#filter0_d_3_389)">
<path d="M67.4167 49.381H69.5V46.2381H72.625V44.1429H69.5V41H67.4167V44.1429H64.2917V46.2381H67.4167V49.381ZM63.25 58.8095C62.1042 58.8095 61.1771 59.7524 61.1771 60.9048C61.1771 62.0571 62.1042 63 63.25 63C64.3958 63 65.3333 62.0571 65.3333 60.9048C65.3333 59.7524 64.3958 58.8095 63.25 58.8095ZM73.6667 58.8095C72.5208 58.8095 71.5938 59.7524 71.5938 60.9048C71.5938 62.0571 72.5208 63 73.6667 63C74.8125 63 75.75 62.0571 75.75 60.9048C75.75 59.7524 74.8125 58.8095 73.6667 58.8095ZM63.4271 55.4048L63.4583 55.279L64.3958 53.5714H72.1562C72.9375 53.5714 73.625 53.1419 73.9792 52.4924L78 45.1486L76.1875 44.1429H76.1771L75.0312 46.2381L72.1562 51.4762H64.8437L64.7083 51.1933L62.375 46.2381L61.3854 44.1429L60.4062 42.0476H57V44.1429H59.0833L62.8333 52.0943L61.4271 54.661C61.2604 54.9543 61.1667 55.3 61.1667 55.6667C61.1667 56.819 62.1042 57.7619 63.25 57.7619H75.75V55.6667H63.6875C63.5521 55.6667 63.4271 55.5514 63.4271 55.4048Z" fill="black"/>
<path d="M73 40.5C73 35.8056 76.8056 32 81.5 32H88.5C93.1944 32 97 35.8056 97 40.5C97 45.1944 93.1944 49 88.5 49H81.5C76.8056 49 73 45.1944 73 40.5Z" fill="#FFBA60"/>
<path d="M84.4569 38.5C84.3969 38.5333 84.2969 38.5767 84.1569 38.63C84.0169 38.6767 83.9102 38.7133 83.8369 38.74C83.5435 38.8333 83.3602 38.9 83.2869 38.94V37.79C83.5135 37.6967 83.7869 37.5633 84.1069 37.39C84.4335 37.21 84.6635 37.0467 84.7969 36.9H86.0069V45H84.4569V38.5Z" fill="white"/>
</g>
<defs>
<filter id="filter0_d_3_389" x="0" y="-14" width="147" height="137" filterUnits="userSpaceOnUse" color-interpolation-filters="sRGB">
<feFlood flood-opacity="0" result="BackgroundImageFix"/>
<feColorMatrix in="SourceAlpha" type="matrix" values="0 0 0 0 0 0 0 0 0 0 0 0 0 0 0 0 0 0 127 0" result="hardAlpha"/>
<feOffset dy="4"/>
<feGaussianBlur stdDeviation="25"/>
<feColorMatrix type="matrix" values="0 0 0 0 0 0 0 0 0 0 0 0 0 0 0 0 0 0 0.3 0"/>
<feBlend mode="normal" in2="BackgroundImageFix" result="effect1_dropShadow_3_389"/>
<feBlend mode="normal" in="SourceGraphic" in2="effect1_dropShadow_3_389" result="shape"/>
</filter>
</defs>
</svg>
